<svg width="40" height="40" viewBox="0 0 40 40" fill="none" xmlns="http://www.w3.org/2000/svg">
<g id="Random Symboles 0">
<g id="Clip path group">
<mask id="mask0_713_30218" style="mask-type:luminance" maskUnits="userSpaceOnUse" x="0" y="0" width="41" height="40">
<g id="clip0">
<path id="Vector" d="M40.0013 0H0V40H40.0013V0Z" fill="white"/>
</g>
</mask>
<g mask="url(#mask0_713_30218)">
<g id="Group">
<path id="Vector_2" d="M36.1756 8.23808C35.6003 7.44845 34.9685 6.70167 34.2849 6.00363C34.2363 5.95471 34.1902 5.90611 34.1416 5.85719C31.981 3.69446 29.3537 2.05556 26.4612 1.06641V27.3018C26.4612 28.1813 26.288 29.0521 25.9515 29.8646C25.615 30.6771 25.1217 31.4154 24.4999 32.0371C23.878 32.6592 23.1397 33.1525 22.3272 33.4889C21.5147 33.8253 20.6439 33.9986 19.7645 33.9986H15.7725V39.5531C17.162 39.8495 18.5788 39.9991 19.9996 39.9991C23.6889 39.9994 27.3065 38.9794 30.4521 37.0517C33.5978 35.124 36.1488 32.3635 37.8231 29.0761C39.4973 25.7885 40.2295 22.1019 39.9388 18.4241C39.6482 14.7462 38.3457 11.2205 36.1756 8.23681V8.23808Z" fill="#0064AF"/>
<path id="Vector_3" d="M19.9998 3.31817e-09C16.3106 0.000351313 12.6934 1.02101 9.54814 2.94911C6.40291 4.87721 3.85217 7.63763 2.17805 10.9251C0.503917 14.2126 -0.228387 17.899 0.0621168 21.5768C0.352619 25.2545 1.65462 28.7803 3.82412 31.7641C4.40075 32.5534 5.03359 33.3001 5.71771 33.9982C5.76474 34.0456 5.81081 34.0929 5.85784 34.1434C8.01802 36.3059 10.6445 37.9451 13.5361 38.9355V12.6975C13.5368 10.9215 14.2428 9.2185 15.4989 7.96295C16.755 6.7074 18.4583 6.00207 20.2343 6.00207H24.2263V0.44752C22.8372 0.149979 21.4205 -2.57604e-05 19.9998 3.31817e-09Z" fill="#003572"/>
</g>
</g>
</g>
</g>
</svg>
