<svg width="40" height="40" viewBox="0 0 40 40" fill="none" xmlns="http://www.w3.org/2000/svg">
<mask id="mask0_713_30229" style="mask-type:luminance" maskUnits="userSpaceOnUse" x="0" y="2" width="40" height="36">
<path d="M40 2H0V37.6164H40V2Z" fill="white"/>
</mask>
<g mask="url(#mask0_713_30229)">
<path d="M19.5984 19.1121V8.55234L11.6227 1.99902V11.2051C2.64043 13.7016 4.35189 16.1137 5.72962 17.1453L0 19.8966L9.33932 24.3841L18.8006 19.8966L9.33932 15.4124L5.92063 17.0544C4.45353 15.0722 8.92085 12.702 11.6227 11.4988V12.692L19.5984 19.1121Z" fill="#BF0A44"/>
<path d="M28.8664 26.9238L20.8907 20.5029V31.0622L24.3784 33.9282C23.7616 36.6354 20.2766 34.6025 17.7646 32.7074L19.7688 31.0622V20.5029L11.793 26.9238V37.6156L17.3884 33.0187C23.6063 39.3935 24.3542 35.3543 24.4363 33.974L28.8667 37.6156L28.8664 26.9238Z" fill="#0063B0"/>
<path d="M31.6681 15.9481C33.7887 6.05416 29.9941 7.62071 28.6958 8.3986V2L20.7197 8.55293V19.1123L28.6958 12.6902V8.48326C31.51 7.42016 31.5799 12.6537 31.3807 15.8114L30.5413 15.413L21.2019 19.8975L30.5413 24.3851L40.0018 19.8975L31.6681 15.9481Z" fill="#249795"/>
</g>
</svg>
