<svg width="40" height="40" viewBox="0 0 40 40" fill="none" xmlns="http://www.w3.org/2000/svg">
<path d="M24.7467 3H33.4546C34.4765 3.00317 35.4557 3.41034 36.178 4.13288C36.9005 4.85541 37.3077 5.83462 37.3107 6.85646V15.564C37.3077 16.5856 36.9005 17.5649 36.178 18.2874C35.4557 19.0099 34.4765 19.4173 33.4546 19.4203H24.7467C23.7248 19.4173 22.7456 19.0099 22.0233 18.2874C21.3008 17.5649 20.8936 16.5856 20.8906 15.564V6.85646C20.8936 5.83462 21.3008 4.85541 22.0233 4.13288C22.7456 3.41034 23.7248 3.00317 24.7467 3Z" fill="#D9DCEE"/>
<path d="M21.583 17.7607L24.5679 14.7756V3.00464C24.6272 3.00169 24.687 3.00021 24.7467 3H25.9361V13.4074L29.2459 10.0978V3H30.6141V8.7296L35.6514 3.69214C35.8384 3.82238 36.0149 3.9695 36.1783 4.13288C36.3414 4.29625 36.4888 4.47251 36.6188 4.65974L31.5412 9.7371H37.3107V11.1053H30.173L26.9027 14.3758H37.3107V15.5638C37.3107 15.6242 37.309 15.6841 37.3061 15.7441H25.5345L22.5504 18.7281C22.3632 18.5979 22.1867 18.4508 22.0233 18.2874C21.8602 18.124 21.713 17.9478 21.583 17.7607Z" fill="#FEFEFE"/>
<path fillRule="evenodd" clipRule="evenodd" d="M15.5642 19.4205H6.85604C5.83419 19.4175 4.85526 19.0101 4.13277 18.2876C3.4103 17.5651 3.00302 16.5861 3 15.5642V6.85647C3.00302 5.83462 3.4103 4.85562 4.13277 4.13309C4.85526 3.41055 5.83419 3.00317 6.85604 3H15.5642C16.5859 3.00317 17.5651 3.41034 18.2876 4.13288C19.0101 4.85541 19.4173 5.83462 19.4201 6.85647V15.564C19.4173 16.5856 19.0101 17.5649 18.2876 18.2874C17.5651 19.0099 16.5859 19.4173 15.5642 19.4203" fill="#D9DCEE"/>
<path d="M15.4504 3H14.0337C14.2673 3.80844 14.3862 4.64749 14.3849 5.49224C14.3864 6.66945 14.1553 7.83546 13.7048 8.92296C13.2544 10.0107 12.5932 10.9985 11.7599 11.83C10.9284 12.6633 9.94058 13.3244 8.85288 13.7749C7.76538 14.2253 6.59937 14.4565 5.42216 14.455C4.60177 14.456 3.78681 14.3442 3 14.1238V15.538C3.79141 15.7284 4.60443 15.8247 5.42216 15.8236C6.77921 15.8253 8.12296 15.5587 9.37678 15.0395C10.6304 14.5202 11.769 13.7584 12.7275 12.7978C13.6881 11.8395 14.4499 10.7007 14.9692 9.44707C15.4884 8.19346 15.7548 6.8495 15.7534 5.49267C15.7544 4.65066 15.6522 3.81351 15.4504 3Z" fill="#FEFEFE"/>
<path d="M3 11.2402C3.01161 11.2451 3.02326 11.2499 3.03491 11.2548C3.79164 11.5682 4.60285 11.7289 5.42195 11.7278C6.24095 11.7289 7.05214 11.5682 7.80865 11.2548C8.56538 10.9413 9.25267 10.4814 9.83103 9.90153C10.4109 9.32317 10.8706 8.63588 11.1841 7.87937C11.4975 7.12264 11.6584 6.31166 11.6573 5.49267C11.6584 4.67346 11.4975 3.86227 11.1841 3.10554C11.1695 3.07029 11.1545 3.03504 11.1393 3H9.60369C9.7238 3.20137 9.82955 3.41182 9.91968 3.62924C10.1643 4.22005 10.2897 4.8533 10.2889 5.49267C10.2897 6.13182 10.1643 6.76506 9.91968 7.35567C9.67504 7.94628 9.31599 8.48264 8.86343 8.93414C8.41193 9.3867 7.87557 9.74554 7.28496 9.99018C6.69435 10.2348 6.06111 10.3604 5.42195 10.3596C4.78256 10.3604 4.14936 10.235 3.55865 9.9904C3.36635 9.91061 3.17978 9.819 3 9.71578V11.2402Z" fill="#FEFEFE"/>
<path fillRule="evenodd" clipRule="evenodd" d="M15.5638 20.8926H6.85625C5.83441 20.8955 4.85532 21.3027 4.13277 22.0252C3.41022 22.7478 3.00302 23.7268 3 24.7486V33.4564C3.00293 34.4782 3.41013 35.4574 4.13269 36.18C4.85526 36.9025 5.83441 37.3099 6.85625 37.3126H15.5638C16.5856 37.3099 17.5646 36.9025 18.2872 36.18C19.0097 35.4574 19.4169 34.4782 19.4198 33.4564V24.7486C19.4169 23.7268 19.0097 22.7478 18.2872 22.0252C17.5646 21.3027 16.5856 20.8955 15.5638 20.8926Z" fill="#D9DCEE"/>
<path d="M19.4198 30.6087L11.21 24.6182L3 30.6085V32.295L11.21 26.3041L19.4198 32.2948V30.6087Z" fill="#FEFEFE"/>
<path d="M19.1556 34.8525L11.2107 29.0547L3.26562 34.8525C3.43151 35.2772 3.67236 35.6721 3.9798 36.0174L11.2107 30.7408L18.4415 36.0174C18.7488 35.6721 18.9897 35.2772 19.1556 34.8525Z" fill="#FEFEFE"/>
<path fillRule="evenodd" clipRule="evenodd" d="M24.7467 20.8926H33.4546C34.4765 20.8955 35.4557 21.3027 36.1782 22.0252C36.9005 22.7478 37.3077 23.7268 37.3107 24.7486V33.4564C37.3077 34.4782 36.9008 35.4574 36.1782 36.18C35.4557 36.9025 34.4765 37.3099 33.4546 37.3126H24.7467C23.7248 37.3099 22.7456 36.9025 22.0231 36.18C21.3005 35.4574 20.8934 34.4782 20.8906 33.4564V24.7486C20.8934 23.7268 21.3005 22.7478 22.0231 22.0252C22.7456 21.3027 23.7248 20.8955 24.7467 20.8926Z" fill="#D9DCEE"/>
<path d="M37.3107 30.7134C36.9805 30.9234 36.6698 31.0942 36.4452 31.0942C36.1531 31.0942 35.7149 30.8052 35.2778 30.5164C34.6221 30.0837 33.9667 29.651 33.1669 29.651C32.3669 29.651 31.7111 30.0839 31.0559 30.5164L31.0386 30.5278C30.6093 30.81 30.1827 31.0906 29.8939 31.0942C29.6018 31.0906 29.1671 30.8037 28.7329 30.5171L28.7321 30.5164C28.0771 30.0837 27.4217 29.651 26.6213 29.651C25.8209 29.651 25.1657 30.0837 24.5105 30.5162L24.5103 30.5164C24.0725 30.8054 23.6351 31.0942 23.3428 31.0942C23.0504 31.0942 22.6124 30.8052 22.1753 30.5164C21.7594 30.2418 21.3436 29.9672 20.8906 29.8032V24.7484C20.8934 23.7268 21.3005 22.7476 22.0231 22.025C22.7456 21.3025 23.7248 20.8953 24.7467 20.8926H33.4546C34.4765 20.8953 35.4557 21.3025 36.1782 22.025C36.9005 22.7476 37.3079 23.7268 37.3107 24.7484V30.7134Z" fill="#D9DCEE"/>
<path d="M20.8906 31.1402V29.5814C21.2581 29.7418 21.6064 29.9719 21.9545 30.2022L21.9636 30.2083C22.4199 30.5089 22.875 30.8086 23.2163 30.8086C23.5581 30.8086 24.0136 30.5085 24.4699 30.2074L24.478 30.2022C25.1116 29.7834 25.7451 29.3652 26.4948 29.3652C27.2446 29.3652 27.8774 29.7834 28.5111 30.2022L28.5202 30.2083C28.9742 30.5074 29.4268 30.8054 29.7675 30.8086C30.1086 30.8054 30.5622 30.5063 31.0166 30.2068L31.0236 30.2022C31.6569 29.7834 32.2907 29.3652 33.0405 29.3652C33.7903 29.3652 34.4231 29.7834 35.0567 30.2022C35.5146 30.5049 35.9752 30.8086 36.3186 30.8086C36.5947 30.8086 36.9453 30.6125 37.3107 30.3784V31.9447C36.9974 32.0861 36.6709 32.1787 36.3186 32.1787C35.5697 32.1787 34.9356 31.7604 34.3019 31.342C33.8441 31.0387 33.3835 30.7356 33.0403 30.7356C32.6971 30.7356 32.2373 31.0387 31.7784 31.342L31.7772 31.3426C31.1471 31.7587 30.5166 32.1747 29.7729 32.1787H29.7675H29.7622C29.0173 32.1747 28.3868 31.7585 27.7561 31.342C27.2984 31.0387 26.8379 30.7356 26.4944 30.7356C26.1514 30.7356 25.6927 31.0383 25.2338 31.3412L25.2326 31.342C24.5995 31.7602 23.9659 32.1787 23.2163 32.1787C22.4668 32.1787 21.8331 31.7604 21.1994 31.342C21.0962 31.2736 20.9928 31.205 20.8906 31.1402Z" fill="#FEFEFE"/>
<path d="M21.176 34.9032C20.9907 34.4479 20.8919 33.9569 20.8906 33.4558V33.1578C21.2581 33.3184 21.6064 33.5483 21.9545 33.7786L21.9568 33.78C22.4155 34.0827 22.8733 34.385 23.2163 34.385C23.5598 34.385 24.018 34.0823 24.4769 33.7792L24.478 33.7786L24.4799 33.7773C25.1129 33.3593 25.7457 32.9416 26.4948 32.9416C27.2442 32.9416 27.8768 33.3596 28.51 33.7777L28.5111 33.7786L28.5134 33.78C28.9672 34.0796 29.4204 34.3785 29.7622 34.3846C30.1054 34.3846 30.5645 34.0815 31.0236 33.7781C31.6569 33.36 32.2907 32.9414 33.0405 32.9414C33.7898 32.9414 34.4224 33.3591 35.0557 33.7775L35.0567 33.7781C35.5146 34.0815 35.9752 34.3846 36.3186 34.3846C36.5854 34.3846 36.9219 34.2018 37.2737 33.978C37.1849 34.6168 36.9377 35.223 36.555 35.7414C36.4775 35.7505 36.3988 35.7553 36.3186 35.7553C35.5697 35.7553 34.9356 35.337 34.3019 34.9184C33.8441 34.6153 33.3835 34.3118 33.0403 34.3118C32.6975 34.3118 32.2384 34.6149 31.7801 34.9173L31.7784 34.9184L31.7772 34.9192C31.1471 35.3353 30.5168 35.7511 29.7729 35.7551V35.7555C29.0234 35.7555 28.3897 35.3372 27.7561 34.9188C27.2984 34.6155 26.8379 34.312 26.4944 34.312C26.1529 34.312 25.6963 34.613 25.2389 34.9146L25.2326 34.9188C24.5995 35.337 23.9659 35.7555 23.2163 35.7555C22.4668 35.7555 21.8331 35.3372 21.1994 34.9188C21.1916 34.9135 21.1838 34.9085 21.176 34.9032Z" fill="#FEFEFE"/>
</svg>
