<svg width="305" height="160" viewBox="0 0 305 160" fill="none" xmlns="http://www.w3.org/2000/svg">
<path d="M165.847 0H190.211C193.07 0.00885843 195.81 1.14805 197.831 3.16955C199.853 5.19104 200.992 7.93066 201 10.7896V35.1514C200.992 38.0097 199.853 40.7494 197.831 42.7709C195.81 44.7924 193.07 45.9321 190.211 45.9404H165.847C162.988 45.9321 160.248 44.7924 158.227 42.7709C156.205 40.7494 155.066 38.0097 155.058 35.1514V10.7896C155.066 7.93066 156.205 5.19104 158.227 3.16955C160.248 1.14805 162.988 0.00885843 165.847 0Z" fill="#81AE33"/>
<path d="M156.993 41.2974L165.345 32.9457V0.0129942C165.511 0.00472637 165.678 0.000590562 165.845 0H169.173V29.1177L178.434 19.8582V0H182.262V16.0302L196.356 1.93646C196.879 2.30083 197.373 2.71245 197.83 3.16955C198.287 3.62664 198.699 4.11976 199.063 4.64359L184.856 18.849H200.999V22.677H181.028L171.877 31.8272H200.999V35.1508C200.999 35.3197 200.994 35.4875 200.986 35.6552H168.049L159.7 44.004C159.176 43.6396 158.682 43.228 158.225 42.7709C157.769 42.3138 157.357 41.8206 156.993 41.2974Z" fill="white"/>
<path fillRule="evenodd" clipRule="evenodd" d="M140.154 45.941H115.789C112.93 45.9327 110.191 44.7929 108.169 42.7714C106.148 40.7499 105.008 38.0109 105 35.152V10.7896C105.008 7.93066 106.148 5.19163 108.169 3.17013C110.191 1.14864 112.93 0.00885843 115.789 0H140.154C143.013 0.00885843 145.752 1.14805 147.774 3.16955C149.796 5.19104 150.935 7.93066 150.943 10.7896V35.1514C150.935 38.0098 149.796 40.7494 147.774 42.7709C145.752 44.7924 143.013 45.9321 140.154 45.9404" fill="#FFED00"/>
<path d="M139.836 0H135.872C136.526 2.26185 136.858 4.60934 136.855 6.97277C136.859 10.2663 136.212 13.5286 134.952 16.5712C133.691 19.6143 131.842 22.3782 129.51 24.7044C127.183 27.0359 124.419 28.8856 121.376 30.1458C118.333 31.4061 115.071 32.0528 111.777 32.0486C109.482 32.0516 107.201 31.7386 105 31.122V35.0788C107.214 35.6115 109.489 35.8808 111.777 35.8778C115.574 35.8825 119.334 35.1367 122.842 33.6839C126.35 32.2311 129.535 30.0998 132.217 27.4121C134.905 24.731 137.036 21.5449 138.489 18.0375C139.942 14.5302 140.687 10.7701 140.683 6.97395C140.686 4.6182 140.4 2.27603 139.836 0Z" fill="white"/>
<path d="M105 23.0544C105.032 23.0679 105.065 23.0815 105.098 23.0951C107.215 23.9721 109.485 24.4215 111.777 24.4186C114.068 24.4215 116.338 23.9721 118.454 23.0951C120.572 22.2181 122.495 20.9313 124.113 19.309C125.735 17.6909 127.022 15.768 127.899 13.6514C128.776 11.5343 129.226 9.26533 129.223 6.97395C129.226 4.68198 128.776 2.41245 127.899 0.295281C127.858 0.196657 127.816 0.0980333 127.773 0H123.477C123.813 0.563396 124.109 1.15219 124.361 1.76047C125.045 3.41345 125.396 5.18514 125.394 6.97395C125.396 8.76217 125.045 10.5339 124.361 12.1862C123.676 13.8386 122.672 15.3393 121.406 16.6025C120.142 17.8686 118.642 18.8726 116.989 19.557C115.337 20.2415 113.565 20.5929 111.777 20.5905C109.988 20.5929 108.216 20.2421 106.563 19.5576C106.025 19.3344 105.503 19.0781 105 18.7893V23.0544Z" fill="white"/>
<path fillRule="evenodd" clipRule="evenodd" d="M140.153 50.0605H115.79C112.931 50.0688 110.191 51.208 108.169 53.2295C106.148 55.251 105.008 57.99 105 60.8489V85.2114C105.008 88.0703 106.148 90.8099 108.169 92.8314C110.191 94.8529 112.931 95.9927 115.79 96.0004H140.153C143.012 95.9927 145.751 94.8529 147.773 92.8314C149.794 90.8099 150.934 88.0703 150.942 85.2114V60.8489C150.934 57.99 149.794 55.251 147.773 53.2295C145.751 51.208 143.012 50.0688 140.153 50.0605Z" fill="#B18274"/>
<path d="M150.942 77.2387L127.971 60.4785L105 77.2381V81.9567L127.971 65.1953L150.942 81.9561V77.2387Z" fill="white"/>
<path d="M150.201 89.1155L127.971 72.8945L105.741 89.1155C106.205 90.3037 106.879 91.4086 107.739 92.3748L127.971 77.6119L148.203 92.3748C149.063 91.4086 149.736 90.3037 150.201 89.1155Z" fill="white"/>
<path fillRule="evenodd" clipRule="evenodd" d="M165.847 50.0605H190.211C193.07 50.0688 195.81 51.208 197.832 53.2295C199.853 55.251 200.992 57.99 201 60.8489V85.2114C200.992 88.0703 199.853 90.8099 197.832 92.8314C195.81 94.8529 193.07 95.9927 190.211 96.0004H165.847C162.988 95.9927 160.248 94.8529 158.226 92.8314C156.205 90.8099 155.065 88.0703 155.058 85.2114V60.8489C155.065 57.99 156.205 55.251 158.226 53.2295C160.248 51.208 162.988 50.0688 165.847 50.0605Z" fill="#31A3D8"/>
<path d="M201 77.537C200.077 78.1246 199.207 78.6024 198.579 78.6024C197.761 78.6024 196.535 77.7939 195.312 76.986C193.478 75.7754 191.644 74.5647 189.406 74.5647C187.168 74.5647 185.333 75.776 183.5 76.986L183.451 77.0179C182.25 77.8075 181.056 78.5924 180.248 78.6024C179.431 78.5924 178.215 77.7898 177 76.9878L176.998 76.986C175.165 75.7754 173.331 74.5647 171.092 74.5647C168.852 74.5647 167.019 75.7754 165.186 76.9854L165.185 76.986C163.96 77.7945 162.737 78.6024 161.919 78.6024C161.101 78.6024 159.875 77.7939 158.652 76.986C157.489 76.2177 156.325 75.4494 155.058 74.9905V60.8483C155.065 57.99 156.205 55.2504 158.226 53.2289C160.248 51.2074 162.988 50.0682 165.847 50.0605H190.211C193.07 50.0682 195.81 51.2074 197.832 53.2289C199.853 55.2504 200.993 57.99 201 60.8483V77.537Z" fill="#A4D7F1"/>
<path d="M155.058 78.7317V74.3704C156.086 74.8192 157.06 75.4629 158.034 76.1072L158.06 76.1243C159.337 76.9653 160.61 77.8039 161.565 77.8039C162.521 77.8039 163.796 76.9641 165.072 76.122L165.095 76.1072C166.868 74.9355 168.64 73.7656 170.738 73.7656C172.836 73.7656 174.606 74.9355 176.379 76.1072L176.405 76.1243C177.675 76.9611 178.941 77.795 179.895 77.8039C180.849 77.795 182.118 76.9582 183.39 76.1202L183.409 76.1072C185.181 74.9355 186.955 73.7656 189.052 73.7656C191.15 73.7656 192.921 74.9355 194.694 76.1072C195.975 76.9541 197.264 77.8039 198.224 77.8039C198.997 77.8039 199.978 77.2552 201 76.6003V80.9823C200.124 81.378 199.21 81.6372 198.224 81.6372C196.129 81.6372 194.355 80.4667 192.582 79.2962C191.301 78.4476 190.012 77.5995 189.052 77.5995C188.092 77.5995 186.805 78.4476 185.521 79.2962L185.518 79.298C183.755 80.462 181.991 81.626 179.91 81.6372H179.895H179.88C177.796 81.626 176.032 80.4614 174.267 79.2962C172.986 78.4476 171.698 77.5995 170.737 77.5995C169.777 77.5995 168.494 78.4464 167.21 79.2939L167.206 79.2962C165.435 80.4661 163.662 81.6372 161.565 81.6372C159.468 81.6372 157.695 80.4667 155.922 79.2962C155.633 79.1049 155.343 78.913 155.058 78.7317Z" fill="white"/>
<path d="M155.856 89.2582C155.338 87.9844 155.061 86.6107 155.058 85.2087V84.3749C156.086 84.8243 157.06 85.4674 158.034 86.1117L158.041 86.1158C159.324 86.9627 160.605 87.8084 161.565 87.8084C162.526 87.8084 163.808 86.9615 165.092 86.1135L165.095 86.1117L165.1 86.1082C166.871 84.9388 168.642 83.7701 170.738 83.7701C172.835 83.7701 174.605 84.9394 176.376 86.1093L176.379 86.1117L176.386 86.1158C177.656 86.9538 178.924 87.7901 179.88 87.8072C180.84 87.8072 182.125 86.9591 183.409 86.1105C185.181 84.9406 186.955 83.7695 189.052 83.7695C191.149 83.7695 192.919 84.9383 194.691 86.1087L194.694 86.1105C195.975 86.9591 197.264 87.8072 198.224 87.8072C198.971 87.8072 199.912 87.2958 200.897 86.6698C200.648 88.4568 199.957 90.1529 198.886 91.6033C198.669 91.6287 198.449 91.6423 198.224 91.6423C196.129 91.6423 194.355 90.4718 192.582 89.3007C191.301 88.4527 190.012 87.6035 189.052 87.6035C188.093 87.6035 186.808 88.4515 185.526 89.2978L185.521 89.3007L185.518 89.3031C183.755 90.4671 181.991 91.6305 179.91 91.6417V91.6429C177.813 91.6429 176.04 90.4724 174.267 89.3019C172.986 88.4533 171.698 87.6041 170.737 87.6041C169.781 87.6041 168.504 88.4462 167.224 89.2901L167.206 89.3019C165.435 90.4718 163.662 91.6429 161.565 91.6429C159.468 91.6429 157.695 90.4724 155.922 89.3019C155.9 89.2872 155.878 89.273 155.856 89.2582Z" fill="white"/>
<path d="M16.2738 115.576H24.4978V117.304H18.2738V120.296H24.0338V121.928H18.2738V125.272H24.6098V127H16.2738V115.576ZM26.3439 115.576H28.1679V122.072L31.4639 118.728H33.7039L30.5359 121.768L34.0079 127H31.7839L29.2559 122.984L28.1679 124.04V127H26.3439V115.576ZM38.8817 127.224C38.2204 127.224 37.6284 127.117 37.1057 126.904C36.5937 126.68 36.1564 126.376 35.7937 125.992C35.4417 125.608 35.1697 125.149 34.9777 124.616C34.7964 124.083 34.7057 123.496 34.7057 122.856C34.7057 122.227 34.7964 121.645 34.9777 121.112C35.1697 120.579 35.4417 120.12 35.7937 119.736C36.1564 119.352 36.5937 119.053 37.1057 118.84C37.6284 118.616 38.2204 118.504 38.8817 118.504C39.543 118.504 40.1297 118.616 40.6417 118.84C41.1644 119.053 41.6017 119.352 41.9537 119.736C42.3164 120.12 42.5884 120.579 42.7697 121.112C42.9617 121.645 43.0577 122.227 43.0577 122.856C43.0577 123.496 42.9617 124.083 42.7697 124.616C42.5884 125.149 42.3164 125.608 41.9537 125.992C41.6017 126.376 41.1644 126.68 40.6417 126.904C40.1297 127.117 39.543 127.224 38.8817 127.224ZM38.8817 125.784C39.287 125.784 39.639 125.699 39.9377 125.528C40.2364 125.357 40.4817 125.133 40.6737 124.856C40.8657 124.579 41.0044 124.269 41.0897 123.928C41.1857 123.576 41.2337 123.219 41.2337 122.856C41.2337 122.504 41.1857 122.152 41.0897 121.8C41.0044 121.448 40.8657 121.139 40.6737 120.872C40.4817 120.595 40.2364 120.371 39.9377 120.2C39.639 120.029 39.287 119.944 38.8817 119.944C38.4764 119.944 38.1244 120.029 37.8257 120.2C37.527 120.371 37.2817 120.595 37.0897 120.872C36.8977 121.139 36.7537 121.448 36.6577 121.8C36.5724 122.152 36.5297 122.504 36.5297 122.856C36.5297 123.219 36.5724 123.576 36.6577 123.928C36.7537 124.269 36.8977 124.579 37.0897 124.856C37.2817 125.133 37.527 125.357 37.8257 125.528C38.1244 125.699 38.4764 125.784 38.8817 125.784ZM44.8221 115.576H46.6461V127H44.8221V115.576ZM52.6254 127.224C51.9641 127.224 51.3721 127.117 50.8494 126.904C50.3374 126.68 49.9001 126.376 49.5374 125.992C49.1854 125.608 48.9134 125.149 48.7214 124.616C48.5401 124.083 48.4494 123.496 48.4494 122.856C48.4494 122.227 48.5401 121.645 48.7214 121.112C48.9134 120.579 49.1854 120.12 49.5374 119.736C49.9001 119.352 50.3374 119.053 50.8494 118.84C51.3721 118.616 51.9641 118.504 52.6254 118.504C53.2868 118.504 53.8734 118.616 54.3854 118.84C54.9081 119.053 55.3454 119.352 55.6974 119.736C56.0601 120.12 56.3321 120.579 56.5134 121.112C56.7054 121.645 56.8014 122.227 56.8014 122.856C56.8014 123.496 56.7054 124.083 56.5134 124.616C56.3321 125.149 56.0601 125.608 55.6974 125.992C55.3454 126.376 54.9081 126.68 54.3854 126.904C53.8734 127.117 53.2868 127.224 52.6254 127.224ZM52.6254 125.784C53.0308 125.784 53.3828 125.699 53.6814 125.528C53.9801 125.357 54.2254 125.133 54.4174 124.856C54.6094 124.579 54.7481 124.269 54.8334 123.928C54.9294 123.576 54.9774 123.219 54.9774 122.856C54.9774 122.504 54.9294 122.152 54.8334 121.8C54.7481 121.448 54.6094 121.139 54.4174 120.872C54.2254 120.595 53.9801 120.371 53.6814 120.2C53.3828 120.029 53.0308 119.944 52.6254 119.944C52.2201 119.944 51.8681 120.029 51.5694 120.2C51.2708 120.371 51.0254 120.595 50.8334 120.872C50.6414 121.139 50.4974 121.448 50.4014 121.8C50.3161 122.152 50.2734 122.504 50.2734 122.856C50.2734 123.219 50.3161 123.576 50.4014 123.928C50.4974 124.269 50.6414 124.579 50.8334 124.856C51.0254 125.133 51.2708 125.357 51.5694 125.528C51.8681 125.699 52.2201 125.784 52.6254 125.784ZM66.1658 126.568C66.1658 127.816 65.8138 128.744 65.1098 129.352C64.4165 129.971 63.4138 130.28 62.1018 130.28C61.6858 130.28 61.2645 130.237 60.8378 130.152C60.4218 130.067 60.0378 129.923 59.6858 129.72C59.3445 129.517 59.0565 129.251 58.8218 128.92C58.5871 128.589 58.4485 128.184 58.4058 127.704H60.2298C60.2831 127.96 60.3738 128.168 60.5018 128.328C60.6298 128.488 60.7791 128.611 60.9498 128.696C61.1311 128.792 61.3285 128.851 61.5418 128.872C61.7551 128.904 61.9791 128.92 62.2138 128.92C62.9498 128.92 63.4885 128.739 63.8298 128.376C64.1711 128.013 64.3418 127.491 64.3418 126.808V125.544H64.3098C64.0538 126.003 63.7018 126.36 63.2538 126.616C62.8165 126.872 62.3418 127 61.8298 127C61.1685 127 60.6031 126.888 60.1338 126.664C59.6751 126.429 59.2911 126.115 58.9818 125.72C58.6831 125.315 58.4645 124.851 58.3258 124.328C58.1871 123.805 58.1178 123.245 58.1178 122.648C58.1178 122.093 58.2031 121.565 58.3738 121.064C58.5445 120.563 58.7898 120.125 59.1098 119.752C59.4298 119.368 59.8191 119.064 60.2778 118.84C60.7471 118.616 61.2751 118.504 61.8618 118.504C62.3845 118.504 62.8645 118.616 63.3018 118.84C63.7391 119.053 64.0751 119.395 64.3098 119.864H64.3418V118.728H66.1658V126.568ZM62.1178 125.56C62.5231 125.56 62.8645 125.48 63.1418 125.32C63.4298 125.149 63.6591 124.931 63.8298 124.664C64.0111 124.387 64.1391 124.077 64.2138 123.736C64.2991 123.384 64.3418 123.032 64.3418 122.68C64.3418 122.328 64.2991 121.987 64.2138 121.656C64.1285 121.325 63.9951 121.032 63.8138 120.776C63.6431 120.52 63.4138 120.317 63.1258 120.168C62.8485 120.019 62.5125 119.944 62.1178 119.944C61.7125 119.944 61.3711 120.029 61.0938 120.2C60.8165 120.371 60.5925 120.595 60.4218 120.872C60.2511 121.139 60.1285 121.448 60.0538 121.8C59.9791 122.141 59.9418 122.483 59.9418 122.824C59.9418 123.165 59.9845 123.501 60.0698 123.832C60.1551 124.152 60.2831 124.44 60.4538 124.696C60.6351 124.952 60.8591 125.16 61.1258 125.32C61.4031 125.48 61.7338 125.56 62.1178 125.56ZM68.2502 115.576H70.0742V117.304H68.2502V115.576ZM68.2502 118.728H70.0742V127H68.2502V118.728ZM71.3496 118.728H73.3496L75.5096 124.904H75.5416L77.6376 118.728H79.5416L76.3256 127.448C76.1762 127.821 76.0269 128.179 75.8776 128.52C75.7389 128.861 75.5629 129.16 75.3496 129.416C75.1469 129.683 74.8909 129.891 74.5816 130.04C74.2722 130.2 73.8776 130.28 73.3976 130.28C72.9709 130.28 72.5496 130.248 72.1336 130.184V128.648C72.2829 128.669 72.4269 128.691 72.5656 128.712C72.7042 128.744 72.8482 128.76 72.9976 128.76C73.2109 128.76 73.3869 128.733 73.5256 128.68C73.6642 128.627 73.7762 128.547 73.8616 128.44C73.9576 128.344 74.0376 128.227 74.1016 128.088C74.1656 127.949 74.2242 127.789 74.2776 127.608L74.4856 126.968L71.3496 118.728ZM87.6864 125.16C87.6864 125.384 87.7131 125.544 87.7664 125.64C87.8304 125.736 87.9478 125.784 88.1184 125.784C88.1718 125.784 88.2358 125.784 88.3104 125.784C88.3851 125.784 88.4704 125.773 88.5664 125.752V127.016C88.5024 127.037 88.4171 127.059 88.3104 127.08C88.2144 127.112 88.1131 127.139 88.0064 127.16C87.8998 127.181 87.7931 127.197 87.6864 127.208C87.5798 127.219 87.4891 127.224 87.4144 127.224C87.0411 127.224 86.7318 127.149 86.4864 127C86.2411 126.851 86.0811 126.589 86.0064 126.216C85.6438 126.568 85.1958 126.824 84.6624 126.984C84.1398 127.144 83.6331 127.224 83.1424 127.224C82.7691 127.224 82.4118 127.171 82.0704 127.064C81.7291 126.968 81.4251 126.824 81.1584 126.632C80.9024 126.429 80.6944 126.179 80.5344 125.88C80.3851 125.571 80.3104 125.213 80.3104 124.808C80.3104 124.296 80.4011 123.88 80.5824 123.56C80.7744 123.24 81.0198 122.989 81.3184 122.808C81.6278 122.627 81.9691 122.499 82.3424 122.424C82.7264 122.339 83.1104 122.275 83.4944 122.232C83.8251 122.168 84.1398 122.125 84.4384 122.104C84.7371 122.072 84.9984 122.024 85.2224 121.96C85.4571 121.896 85.6384 121.8 85.7664 121.672C85.9051 121.533 85.9744 121.331 85.9744 121.064C85.9744 120.829 85.9158 120.637 85.7984 120.488C85.6918 120.339 85.5531 120.227 85.3824 120.152C85.2224 120.067 85.0411 120.013 84.8384 119.992C84.6358 119.96 84.4438 119.944 84.2624 119.944C83.7504 119.944 83.3291 120.051 82.9984 120.264C82.6678 120.477 82.4811 120.808 82.4384 121.256H80.6144C80.6464 120.723 80.7744 120.28 80.9984 119.928C81.2224 119.576 81.5051 119.293 81.8464 119.08C82.1984 118.867 82.5931 118.717 83.0304 118.632C83.4678 118.547 83.9158 118.504 84.3744 118.504C84.7798 118.504 85.1798 118.547 85.5744 118.632C85.9691 118.717 86.3211 118.856 86.6304 119.048C86.9504 119.24 87.2064 119.491 87.3984 119.8C87.5904 120.099 87.6864 120.467 87.6864 120.904V125.16ZM85.8624 122.856C85.5851 123.037 85.2438 123.149 84.8384 123.192C84.4331 123.224 84.0278 123.277 83.6224 123.352C83.4304 123.384 83.2438 123.432 83.0624 123.496C82.8811 123.549 82.7211 123.629 82.5824 123.736C82.4438 123.832 82.3318 123.965 82.2464 124.136C82.1718 124.296 82.1344 124.493 82.1344 124.728C82.1344 124.931 82.1931 125.101 82.3104 125.24C82.4278 125.379 82.5664 125.491 82.7264 125.576C82.8971 125.651 83.0784 125.704 83.2704 125.736C83.4731 125.768 83.6544 125.784 83.8144 125.784C84.0171 125.784 84.2358 125.757 84.4704 125.704C84.7051 125.651 84.9238 125.56 85.1264 125.432C85.3398 125.304 85.5158 125.144 85.6544 124.952C85.7931 124.749 85.8624 124.504 85.8624 124.216V122.856ZM93.6862 118.728H95.6702L97.7662 125.08H97.7982L99.8142 118.728H101.702L98.7422 127H96.6942L93.6862 118.728ZM104.295 123.592C104.316 123.88 104.375 124.157 104.471 124.424C104.578 124.691 104.716 124.925 104.887 125.128C105.068 125.32 105.282 125.48 105.527 125.608C105.783 125.725 106.066 125.784 106.375 125.784C106.695 125.784 106.983 125.731 107.239 125.624C107.506 125.507 107.73 125.352 107.911 125.16C108.103 124.957 108.252 124.723 108.359 124.456C108.476 124.189 108.54 123.901 108.551 123.592H104.295ZM108.551 122.392C108.551 122.072 108.503 121.763 108.407 121.464C108.322 121.165 108.188 120.904 108.007 120.68C107.826 120.456 107.596 120.28 107.319 120.152C107.042 120.013 106.711 119.944 106.327 119.944C105.783 119.944 105.351 120.061 105.031 120.296C104.711 120.52 104.471 120.861 104.311 121.32H102.583C102.679 120.872 102.844 120.472 103.079 120.12C103.314 119.768 103.596 119.475 103.927 119.24C104.258 118.995 104.626 118.813 105.031 118.696C105.447 118.568 105.879 118.504 106.327 118.504C106.978 118.504 107.554 118.611 108.055 118.824C108.556 119.037 108.978 119.336 109.319 119.72C109.671 120.104 109.932 120.563 110.103 121.096C110.284 121.629 110.375 122.216 110.375 122.856C110.375 123.443 110.279 124.003 110.087 124.536C109.906 125.059 109.639 125.523 109.287 125.928C108.946 126.323 108.53 126.637 108.039 126.872C107.548 127.107 106.994 127.224 106.375 127.224C105.724 127.224 105.138 127.091 104.615 126.824C104.103 126.547 103.671 126.184 103.319 125.736C102.978 125.288 102.732 124.776 102.583 124.2C102.434 123.613 102.396 123.011 102.471 122.392H108.551ZM115.911 115.576H125.159V117.304H121.527V127H119.527V117.304H115.911V115.576ZM127.723 123.592C127.745 123.88 127.803 124.157 127.899 124.424C128.006 124.691 128.145 124.925 128.315 125.128C128.497 125.32 128.71 125.48 128.955 125.608C129.211 125.725 129.494 125.784 129.803 125.784C130.123 125.784 130.411 125.731 130.667 125.624C130.934 125.507 131.158 125.352 131.339 125.16C131.531 124.957 131.681 124.723 131.787 124.456C131.905 124.189 131.969 123.901 131.979 123.592H127.723ZM131.979 122.392C131.979 122.072 131.931 121.763 131.835 121.464C131.75 121.165 131.617 120.904 131.435 120.68C131.254 120.456 131.025 120.28 130.747 120.152C130.47 120.013 130.139 119.944 129.755 119.944C129.211 119.944 128.779 120.061 128.459 120.296C128.139 120.52 127.899 120.861 127.739 121.32H126.011C126.107 120.872 126.273 120.472 126.507 120.12C126.742 119.768 127.025 119.475 127.355 119.24C127.686 118.995 128.054 118.813 128.459 118.696C128.875 118.568 129.307 118.504 129.755 118.504C130.406 118.504 130.982 118.611 131.483 118.824C131.985 119.037 132.406 119.336 132.747 119.72C133.099 120.104 133.361 120.563 133.531 121.096C133.713 121.629 133.803 122.216 133.803 122.856C133.803 123.443 133.707 124.003 133.515 124.536C133.334 125.059 133.067 125.523 132.715 125.928C132.374 126.323 131.958 126.637 131.467 126.872C130.977 127.107 130.422 127.224 129.803 127.224C129.153 127.224 128.566 127.091 128.043 126.824C127.531 126.547 127.099 126.184 126.747 125.736C126.406 125.288 126.161 124.776 126.011 124.2C125.862 123.613 125.825 123.011 125.899 122.392H131.979ZM135.566 115.576H137.39V119.8H137.422C137.55 119.597 137.704 119.416 137.886 119.256C138.067 119.096 138.264 118.963 138.478 118.856C138.702 118.739 138.931 118.653 139.166 118.6C139.411 118.536 139.651 118.504 139.886 118.504C140.536 118.504 141.102 118.621 141.582 118.856C142.072 119.08 142.478 119.395 142.798 119.8C143.118 120.195 143.358 120.659 143.518 121.192C143.678 121.725 143.758 122.296 143.758 122.904C143.758 123.459 143.683 123.997 143.534 124.52C143.395 125.043 143.176 125.507 142.878 125.912C142.59 126.307 142.222 126.627 141.774 126.872C141.326 127.107 140.798 127.224 140.19 127.224C139.912 127.224 139.63 127.203 139.342 127.16C139.064 127.128 138.798 127.059 138.542 126.952C138.286 126.845 138.051 126.707 137.838 126.536C137.635 126.365 137.464 126.141 137.326 125.864H137.294V127H135.566V115.576ZM141.934 122.872C141.934 122.499 141.886 122.136 141.79 121.784C141.694 121.432 141.55 121.123 141.358 120.856C141.166 120.579 140.926 120.36 140.638 120.2C140.35 120.029 140.019 119.944 139.646 119.944C138.878 119.944 138.296 120.211 137.902 120.744C137.518 121.277 137.326 121.987 137.326 122.872C137.326 123.288 137.374 123.677 137.47 124.04C137.576 124.392 137.731 124.696 137.934 124.952C138.136 125.208 138.376 125.411 138.654 125.56C138.942 125.709 139.272 125.784 139.646 125.784C140.062 125.784 140.414 125.699 140.702 125.528C140.99 125.357 141.224 125.139 141.406 124.872C141.598 124.595 141.731 124.285 141.806 123.944C141.891 123.592 141.934 123.235 141.934 122.872ZM145.547 115.576H147.371V117.304H145.547V115.576ZM145.547 118.728H147.371V127H145.547V118.728ZM149.606 115.576H151.43V117.304H149.606V115.576ZM149.606 118.728H151.43V127H149.606V118.728ZM159.839 123.192C159.839 123.629 159.914 124.003 160.063 124.312C160.212 124.621 160.42 124.877 160.687 125.08C160.954 125.272 161.258 125.416 161.599 125.512C161.951 125.597 162.33 125.64 162.735 125.64C163.172 125.64 163.546 125.592 163.855 125.496C164.164 125.389 164.415 125.256 164.607 125.096C164.799 124.936 164.938 124.755 165.023 124.552C165.108 124.339 165.151 124.125 165.151 123.912C165.151 123.475 165.05 123.155 164.847 122.952C164.655 122.739 164.442 122.589 164.207 122.504C163.802 122.355 163.327 122.216 162.783 122.088C162.25 121.949 161.588 121.773 160.799 121.56C160.308 121.432 159.898 121.267 159.567 121.064C159.247 120.851 158.991 120.616 158.799 120.36C158.607 120.104 158.468 119.832 158.383 119.544C158.308 119.256 158.271 118.963 158.271 118.664C158.271 118.088 158.388 117.592 158.623 117.176C158.868 116.749 159.188 116.397 159.583 116.12C159.978 115.843 160.426 115.64 160.927 115.512C161.428 115.373 161.935 115.304 162.447 115.304C163.044 115.304 163.604 115.384 164.127 115.544C164.66 115.693 165.124 115.923 165.519 116.232C165.924 116.541 166.244 116.925 166.479 117.384C166.714 117.832 166.831 118.355 166.831 118.952H164.831C164.778 118.216 164.527 117.699 164.079 117.4C163.631 117.091 163.06 116.936 162.367 116.936C162.132 116.936 161.892 116.963 161.647 117.016C161.402 117.059 161.178 117.139 160.975 117.256C160.772 117.363 160.602 117.512 160.463 117.704C160.335 117.896 160.271 118.136 160.271 118.424C160.271 118.829 160.394 119.149 160.639 119.384C160.895 119.608 161.226 119.779 161.631 119.896C161.674 119.907 161.839 119.955 162.127 120.04C162.426 120.115 162.756 120.2 163.119 120.296C163.482 120.392 163.834 120.488 164.175 120.584C164.527 120.669 164.778 120.733 164.927 120.776C165.3 120.893 165.626 121.053 165.903 121.256C166.18 121.459 166.41 121.693 166.591 121.96C166.783 122.216 166.922 122.493 167.007 122.792C167.103 123.091 167.151 123.389 167.151 123.688C167.151 124.328 167.018 124.877 166.751 125.336C166.495 125.784 166.154 126.152 165.727 126.44C165.3 126.728 164.815 126.936 164.271 127.064C163.727 127.203 163.172 127.272 162.607 127.272C161.956 127.272 161.343 127.192 160.767 127.032C160.191 126.872 159.69 126.627 159.263 126.296C158.836 125.965 158.495 125.544 158.239 125.032C157.983 124.509 157.85 123.896 157.839 123.192H159.839ZM170.142 123.592C170.163 123.88 170.222 124.157 170.318 124.424C170.425 124.691 170.563 124.925 170.734 125.128C170.915 125.32 171.129 125.48 171.374 125.608C171.63 125.725 171.913 125.784 172.222 125.784C172.542 125.784 172.83 125.731 173.086 125.624C173.353 125.507 173.577 125.352 173.758 125.16C173.95 124.957 174.099 124.723 174.206 124.456C174.323 124.189 174.387 123.901 174.398 123.592H170.142ZM174.398 122.392C174.398 122.072 174.35 121.763 174.254 121.464C174.169 121.165 174.035 120.904 173.854 120.68C173.673 120.456 173.443 120.28 173.166 120.152C172.889 120.013 172.558 119.944 172.174 119.944C171.63 119.944 171.198 120.061 170.878 120.296C170.558 120.52 170.318 120.861 170.158 121.32H168.43C168.526 120.872 168.691 120.472 168.926 120.12C169.161 119.768 169.443 119.475 169.774 119.24C170.105 118.995 170.473 118.813 170.878 118.696C171.294 118.568 171.726 118.504 172.174 118.504C172.825 118.504 173.401 118.611 173.902 118.824C174.403 119.037 174.825 119.336 175.166 119.72C175.518 120.104 175.779 120.563 175.95 121.096C176.131 121.629 176.222 122.216 176.222 122.856C176.222 123.443 176.126 124.003 175.934 124.536C175.753 125.059 175.486 125.523 175.134 125.928C174.793 126.323 174.377 126.637 173.886 126.872C173.395 127.107 172.841 127.224 172.222 127.224C171.571 127.224 170.985 127.091 170.462 126.824C169.95 126.547 169.518 126.184 169.166 125.736C168.825 125.288 168.579 124.776 168.43 124.2C168.281 123.613 168.243 123.011 168.318 122.392H174.398ZM177.937 118.728H179.649V120.328H179.681C179.734 120.104 179.835 119.885 179.985 119.672C180.145 119.459 180.331 119.267 180.545 119.096C180.769 118.915 181.014 118.771 181.281 118.664C181.547 118.557 181.819 118.504 182.097 118.504C182.31 118.504 182.454 118.509 182.529 118.52C182.614 118.531 182.699 118.541 182.785 118.552V120.312C182.657 120.291 182.523 120.275 182.385 120.264C182.257 120.243 182.129 120.232 182.001 120.232C181.691 120.232 181.398 120.296 181.121 120.424C180.854 120.541 180.619 120.723 180.417 120.968C180.214 121.203 180.054 121.496 179.937 121.848C179.819 122.2 179.761 122.605 179.761 123.064V127H177.937V118.728ZM182.946 118.728H184.93L187.026 125.08H187.058L189.074 118.728H190.962L188.002 127H185.954L182.946 118.728ZM193.554 123.592C193.576 123.88 193.634 124.157 193.73 124.424C193.837 124.691 193.976 124.925 194.146 125.128C194.328 125.32 194.541 125.48 194.786 125.608C195.042 125.725 195.325 125.784 195.634 125.784C195.954 125.784 196.242 125.731 196.498 125.624C196.765 125.507 196.989 125.352 197.17 125.16C197.362 124.957 197.512 124.723 197.618 124.456C197.736 124.189 197.8 123.901 197.81 123.592H193.554ZM197.81 122.392C197.81 122.072 197.762 121.763 197.666 121.464C197.581 121.165 197.448 120.904 197.266 120.68C197.085 120.456 196.856 120.28 196.578 120.152C196.301 120.013 195.97 119.944 195.586 119.944C195.042 119.944 194.61 120.061 194.29 120.296C193.97 120.52 193.73 120.861 193.57 121.32H191.842C191.938 120.872 192.104 120.472 192.338 120.12C192.573 119.768 192.856 119.475 193.186 119.24C193.517 118.995 193.885 118.813 194.29 118.696C194.706 118.568 195.138 118.504 195.586 118.504C196.237 118.504 196.813 118.611 197.314 118.824C197.816 119.037 198.237 119.336 198.578 119.72C198.93 120.104 199.192 120.563 199.362 121.096C199.544 121.629 199.634 122.216 199.634 122.856C199.634 123.443 199.538 124.003 199.346 124.536C199.165 125.059 198.898 125.523 198.546 125.928C198.205 126.323 197.789 126.637 197.298 126.872C196.808 127.107 196.253 127.224 195.634 127.224C194.984 127.224 194.397 127.091 193.874 126.824C193.362 126.547 192.93 126.184 192.578 125.736C192.237 125.288 191.992 124.776 191.842 124.2C191.693 123.613 191.656 123.011 191.73 122.392H197.81ZM200.517 118.728H201.893V116.248H203.717V118.728H205.365V120.088H203.717V124.504C203.717 124.696 203.722 124.861 203.733 125C203.754 125.139 203.792 125.256 203.845 125.352C203.909 125.448 204 125.523 204.117 125.576C204.234 125.619 204.394 125.64 204.597 125.64C204.725 125.64 204.853 125.64 204.981 125.64C205.109 125.629 205.237 125.608 205.365 125.576V126.984C205.162 127.005 204.965 127.027 204.773 127.048C204.581 127.069 204.384 127.08 204.181 127.08C203.701 127.08 203.312 127.037 203.013 126.952C202.725 126.856 202.496 126.723 202.325 126.552C202.165 126.371 202.053 126.147 201.989 125.88C201.936 125.613 201.904 125.309 201.893 124.968V120.088H200.517V118.728ZM206.925 115.576H208.749V127H206.925V115.576ZM212.233 123.592C212.254 123.88 212.313 124.157 212.409 124.424C212.515 124.691 212.654 124.925 212.825 125.128C213.006 125.32 213.219 125.48 213.465 125.608C213.721 125.725 214.003 125.784 214.313 125.784C214.633 125.784 214.921 125.731 215.177 125.624C215.443 125.507 215.667 125.352 215.849 125.16C216.041 124.957 216.19 124.723 216.297 124.456C216.414 124.189 216.478 123.901 216.489 123.592H212.233ZM216.489 122.392C216.489 122.072 216.441 121.763 216.345 121.464C216.259 121.165 216.126 120.904 215.945 120.68C215.763 120.456 215.534 120.28 215.257 120.152C214.979 120.013 214.649 119.944 214.265 119.944C213.721 119.944 213.289 120.061 212.969 120.296C212.649 120.52 212.409 120.861 212.249 121.32H210.521C210.617 120.872 210.782 120.472 211.017 120.12C211.251 119.768 211.534 119.475 211.865 119.24C212.195 118.995 212.563 118.813 212.969 118.696C213.385 118.568 213.817 118.504 214.265 118.504C214.915 118.504 215.491 118.611 215.993 118.824C216.494 119.037 216.915 119.336 217.257 119.72C217.609 120.104 217.87 120.563 218.041 121.096C218.222 121.629 218.313 122.216 218.313 122.856C218.313 123.443 218.217 124.003 218.025 124.536C217.843 125.059 217.577 125.523 217.225 125.928C216.883 126.323 216.467 126.637 215.977 126.872C215.486 127.107 214.931 127.224 214.313 127.224C213.662 127.224 213.075 127.091 212.553 126.824C212.041 126.547 211.609 126.184 211.257 125.736C210.915 125.288 210.67 124.776 210.521 124.2C210.371 123.613 210.334 123.011 210.409 122.392H216.489ZM220.027 118.728H221.739V120.328H221.771C221.825 120.104 221.926 119.885 222.075 119.672C222.235 119.459 222.422 119.267 222.635 119.096C222.859 118.915 223.105 118.771 223.371 118.664C223.638 118.557 223.91 118.504 224.187 118.504C224.401 118.504 224.545 118.509 224.619 118.52C224.705 118.531 224.79 118.541 224.875 118.552V120.312C224.747 120.291 224.614 120.275 224.475 120.264C224.347 120.243 224.219 120.232 224.091 120.232C223.782 120.232 223.489 120.296 223.211 120.424C222.945 120.541 222.71 120.723 222.507 120.968C222.305 121.203 222.145 121.496 222.027 121.848C221.91 122.2 221.851 122.605 221.851 123.064V127H220.027V118.728ZM230.681 115.576H232.793L238.009 123.992H238.041V115.576H239.945V127H237.833L232.633 118.6H232.585V127H230.681V115.576ZM249.18 125.16C249.18 125.384 249.207 125.544 249.26 125.64C249.324 125.736 249.442 125.784 249.612 125.784C249.666 125.784 249.73 125.784 249.804 125.784C249.879 125.784 249.964 125.773 250.06 125.752V127.016C249.996 127.037 249.911 127.059 249.804 127.08C249.708 127.112 249.607 127.139 249.5 127.16C249.394 127.181 249.287 127.197 249.18 127.208C249.074 127.219 248.983 127.224 248.908 127.224C248.535 127.224 248.226 127.149 247.98 127C247.735 126.851 247.575 126.589 247.5 126.216C247.138 126.568 246.69 126.824 246.156 126.984C245.634 127.144 245.127 127.224 244.636 127.224C244.263 127.224 243.906 127.171 243.564 127.064C243.223 126.968 242.919 126.824 242.652 126.632C242.396 126.429 242.188 126.179 242.028 125.88C241.879 125.571 241.804 125.213 241.804 124.808C241.804 124.296 241.895 123.88 242.076 123.56C242.268 123.24 242.514 122.989 242.812 122.808C243.122 122.627 243.463 122.499 243.836 122.424C244.22 122.339 244.604 122.275 244.988 122.232C245.319 122.168 245.634 122.125 245.932 122.104C246.231 122.072 246.492 122.024 246.716 121.96C246.951 121.896 247.132 121.8 247.26 121.672C247.399 121.533 247.468 121.331 247.468 121.064C247.468 120.829 247.41 120.637 247.292 120.488C247.186 120.339 247.047 120.227 246.876 120.152C246.716 120.067 246.535 120.013 246.332 119.992C246.13 119.96 245.938 119.944 245.756 119.944C245.244 119.944 244.823 120.051 244.492 120.264C244.162 120.477 243.975 120.808 243.932 121.256H242.108C242.14 120.723 242.268 120.28 242.492 119.928C242.716 119.576 242.999 119.293 243.34 119.08C243.692 118.867 244.087 118.717 244.524 118.632C244.962 118.547 245.41 118.504 245.868 118.504C246.274 118.504 246.674 118.547 247.068 118.632C247.463 118.717 247.815 118.856 248.124 119.048C248.444 119.24 248.7 119.491 248.892 119.8C249.084 120.099 249.18 120.467 249.18 120.904V125.16ZM247.356 122.856C247.079 123.037 246.738 123.149 246.332 123.192C245.927 123.224 245.522 123.277 245.116 123.352C244.924 123.384 244.738 123.432 244.556 123.496C244.375 123.549 244.215 123.629 244.076 123.736C243.938 123.832 243.826 123.965 243.74 124.136C243.666 124.296 243.628 124.493 243.628 124.728C243.628 124.931 243.687 125.101 243.804 125.24C243.922 125.379 244.06 125.491 244.22 125.576C244.391 125.651 244.572 125.704 244.764 125.736C244.967 125.768 245.148 125.784 245.308 125.784C245.511 125.784 245.73 125.757 245.964 125.704C246.199 125.651 246.418 125.56 246.62 125.432C246.834 125.304 247.01 125.144 247.148 124.952C247.287 124.749 247.356 124.504 247.356 124.216V122.856ZM251.055 118.728H257.775V120.008L253.039 125.56H258.015V127H250.735V125.72L255.311 120.168H251.055V118.728ZM259.591 115.576H261.415V117.304H259.591V115.576ZM259.591 118.728H261.415V127H259.591V118.728ZM263.602 118.728H265.314V120.328H265.346C265.4 120.104 265.501 119.885 265.65 119.672C265.81 119.459 265.997 119.267 266.21 119.096C266.434 118.915 266.68 118.771 266.946 118.664C267.213 118.557 267.485 118.504 267.762 118.504C267.976 118.504 268.12 118.509 268.194 118.52C268.28 118.531 268.365 118.541 268.45 118.552V120.312C268.322 120.291 268.189 120.275 268.05 120.264C267.922 120.243 267.794 120.232 267.666 120.232C267.357 120.232 267.064 120.296 266.786 120.424C266.52 120.541 266.285 120.723 266.082 120.968C265.88 121.203 265.72 121.496 265.602 121.848C265.485 122.2 265.426 122.605 265.426 123.064V127H263.602V118.728ZM269.475 115.576H271.299V127H269.475V115.576ZM273.535 115.576H275.359V117.304H273.535V115.576ZM273.535 118.728H275.359V127H273.535V118.728ZM276.634 118.728H278.634L280.794 124.904H280.826L282.922 118.728H284.826L281.61 127.448C281.461 127.821 281.311 128.179 281.162 128.52C281.023 128.861 280.847 129.16 280.634 129.416C280.431 129.683 280.175 129.891 279.866 130.04C279.557 130.2 279.162 130.28 278.682 130.28C278.255 130.28 277.834 130.248 277.418 130.184V128.648C277.567 128.669 277.711 128.691 277.85 128.712C277.989 128.744 278.133 128.76 278.282 128.76C278.495 128.76 278.671 128.733 278.81 128.68C278.949 128.627 279.061 128.547 279.146 128.44C279.242 128.344 279.322 128.227 279.386 128.088C279.45 127.949 279.509 127.789 279.562 127.608L279.77 126.968L276.634 118.728ZM286.091 115.576H287.915V117.304H286.091V115.576ZM286.091 118.728H287.915V127H286.091V118.728Z" fill="#162753"/>
<path d="M5.57447 146.007H9.53047C10.3585 146.007 10.9795 145.823 11.3935 145.455C11.8075 145.087 12.0145 144.489 12.0145 143.661C12.0145 142.864 11.8075 142.289 11.3935 141.936C10.9795 141.568 10.3585 141.384 9.53047 141.384H5.57447V146.007ZM1.96346 138.578H10.8185C11.5545 138.578 12.2138 138.701 12.7965 138.946C13.3945 139.176 13.9005 139.498 14.3145 139.912C14.7438 140.326 15.0658 140.809 15.2805 141.361C15.5105 141.898 15.6255 142.48 15.6255 143.109C15.6255 144.075 15.4185 144.911 15.0045 145.616C14.6058 146.321 13.9465 146.858 13.0265 147.226V147.272C13.4711 147.395 13.8391 147.586 14.1305 147.847C14.4218 148.092 14.6595 148.391 14.8435 148.744C15.0275 149.081 15.1578 149.457 15.2345 149.871C15.3265 150.285 15.3878 150.699 15.4185 151.113C15.4338 151.374 15.4491 151.68 15.4645 152.033C15.4798 152.386 15.5028 152.746 15.5335 153.114C15.5795 153.482 15.6408 153.835 15.7175 154.172C15.8095 154.494 15.9398 154.77 16.1085 155H12.4975C12.2981 154.479 12.1755 153.858 12.1295 153.137C12.0835 152.416 12.0145 151.726 11.9225 151.067C11.7998 150.208 11.5391 149.58 11.1405 149.181C10.7418 148.782 10.0901 148.583 9.18547 148.583H5.57447V155H1.96346V138.578ZM23.6381 155.299C22.6261 155.299 21.7444 155.107 20.9931 154.724C20.2418 154.325 19.6208 153.796 19.1301 153.137C18.6548 152.478 18.3098 151.726 18.0951 150.883C17.8804 150.04 17.8038 149.158 17.8651 148.238H26.4441C26.3981 147.18 26.1298 146.413 25.6391 145.938C25.1484 145.463 24.4431 145.225 23.5231 145.225C22.8638 145.225 22.2964 145.394 21.8211 145.731C21.3458 146.053 21.0544 146.398 20.9471 146.766H18.0721C18.5321 145.34 19.2374 144.32 20.1881 143.707C21.1388 143.094 22.2888 142.787 23.6381 142.787C24.5734 142.787 25.4168 142.94 26.1681 143.247C26.9194 143.538 27.5558 143.96 28.0771 144.512C28.5984 145.064 28.9971 145.723 29.2731 146.49C29.5644 147.257 29.7101 148.1 29.7101 149.02C29.7101 149.909 29.5644 150.737 29.2731 151.504C28.9818 152.271 28.5678 152.938 28.0311 153.505C27.4944 154.057 26.8504 154.494 26.0991 154.816C25.3631 155.138 24.5428 155.299 23.6381 155.299ZM23.7301 152.838C24.2514 152.838 24.6808 152.754 25.0181 152.585C25.3708 152.401 25.6468 152.179 25.8461 151.918C26.0608 151.657 26.2064 151.381 26.2831 151.09C26.3751 150.799 26.4288 150.538 26.4441 150.308H21.1311C21.2844 151.136 21.5528 151.765 21.9361 152.194C22.3348 152.623 22.9328 152.838 23.7301 152.838ZM34.5841 149.066C34.5841 149.541 34.6301 150.009 34.7221 150.469C34.8141 150.914 34.9675 151.32 35.1821 151.688C35.4121 152.041 35.7035 152.324 36.0561 152.539C36.4241 152.754 36.8765 152.861 37.4131 152.861C37.9498 152.861 38.3945 152.761 38.7471 152.562C39.1151 152.347 39.4065 152.071 39.6211 151.734C39.8511 151.381 40.0121 150.983 40.1041 150.538C40.2115 150.078 40.2651 149.603 40.2651 149.112C40.2651 148.652 40.2115 148.192 40.1041 147.732C40.0121 147.272 39.8588 146.858 39.6441 146.49C39.4295 146.122 39.1381 145.823 38.7701 145.593C38.4175 145.363 37.9881 145.248 37.4821 145.248C36.9455 145.248 36.4931 145.355 36.1251 145.57C35.7571 145.785 35.4581 146.076 35.2281 146.444C34.9981 146.797 34.8295 147.203 34.7221 147.663C34.6301 148.108 34.5841 148.575 34.5841 149.066ZM43.4161 159.163H40.1501V153.505H40.1041C39.7208 154.149 39.1841 154.609 38.4941 154.885C37.8041 155.161 37.0911 155.299 36.3551 155.299C35.8031 155.299 35.2281 155.199 34.6301 155C34.0475 154.785 33.5108 154.44 33.0201 153.965C32.5295 153.474 32.1231 152.838 31.8011 152.056C31.4791 151.259 31.3181 150.285 31.3181 149.135C31.3181 148.322 31.4255 147.533 31.6401 146.766C31.8548 145.999 32.1845 145.325 32.6291 144.742C33.0738 144.144 33.6258 143.669 34.2851 143.316C34.9598 142.963 35.7495 142.787 36.6541 142.787C37.3901 142.787 38.0801 142.933 38.7241 143.224C39.3835 143.5 39.8971 143.968 40.2651 144.627H40.3111V143.109H43.4161V159.163ZM51.3057 155.299C50.2937 155.299 49.412 155.107 48.6607 154.724C47.9093 154.325 47.2883 153.796 46.7977 153.137C46.3223 152.478 45.9773 151.726 45.7627 150.883C45.548 150.04 45.4713 149.158 45.5327 148.238H54.1117C54.0657 147.18 53.7973 146.413 53.3067 145.938C52.816 145.463 52.1107 145.225 51.1907 145.225C50.5313 145.225 49.964 145.394 49.4887 145.731C49.0133 146.053 48.722 146.398 48.6147 146.766H45.7397C46.1997 145.34 46.905 144.32 47.8557 143.707C48.8063 143.094 49.9563 142.787 51.3057 142.787C52.241 142.787 53.0843 142.94 53.8357 143.247C54.587 143.538 55.2233 143.96 55.7447 144.512C56.266 145.064 56.6647 145.723 56.9407 146.49C57.232 147.257 57.3777 148.1 57.3777 149.02C57.3777 149.909 57.232 150.737 56.9407 151.504C56.6493 152.271 56.2353 152.938 55.6987 153.505C55.162 154.057 54.518 154.494 53.7667 154.816C53.0307 155.138 52.2103 155.299 51.3057 155.299ZM51.3977 152.838C51.919 152.838 52.3483 152.754 52.6857 152.585C53.0383 152.401 53.3143 152.179 53.5137 151.918C53.7283 151.657 53.874 151.381 53.9507 151.09C54.0427 150.799 54.0963 150.538 54.1117 150.308H48.7987C48.952 151.136 49.2203 151.765 49.6037 152.194C50.0023 152.623 50.6003 152.838 51.3977 152.838ZM59.5837 143.109H62.6657V144.719H62.7117C63.141 144.106 63.6547 143.63 64.2527 143.293C64.866 142.956 65.5637 142.787 66.3457 142.787C67.097 142.787 67.7794 142.933 68.3927 143.224C69.0214 143.515 69.4967 144.029 69.8187 144.765C70.1714 144.244 70.6467 143.784 71.2447 143.385C71.858 142.986 72.5787 142.787 73.4067 142.787C74.0354 142.787 74.618 142.864 75.1547 143.017C75.6914 143.17 76.1514 143.416 76.5347 143.753C76.918 144.09 77.217 144.535 77.4317 145.087C77.6464 145.624 77.7537 146.275 77.7537 147.042V155H74.4877V148.261C74.4877 147.862 74.4724 147.487 74.4417 147.134C74.411 146.781 74.3267 146.475 74.1887 146.214C74.0507 145.953 73.8437 145.746 73.5677 145.593C73.307 145.44 72.9467 145.363 72.4867 145.363C72.0267 145.363 71.651 145.455 71.3597 145.639C71.0837 145.808 70.8614 146.038 70.6927 146.329C70.5394 146.605 70.432 146.927 70.3707 147.295C70.3247 147.648 70.3017 148.008 70.3017 148.376V155H67.0357V148.33C67.0357 147.977 67.028 147.632 67.0127 147.295C66.9974 146.942 66.9284 146.62 66.8057 146.329C66.6984 146.038 66.5067 145.808 66.2307 145.639C65.97 145.455 65.579 145.363 65.0577 145.363C64.9044 145.363 64.6974 145.401 64.4367 145.478C64.1914 145.539 63.946 145.67 63.7007 145.869C63.4707 146.053 63.2714 146.329 63.1027 146.697C62.934 147.05 62.8497 147.517 62.8497 148.1V155H59.5837V143.109ZM83.0655 151.136C83.0655 151.489 83.1345 151.795 83.2725 152.056C83.4258 152.301 83.6175 152.508 83.8475 152.677C84.0775 152.83 84.3381 152.945 84.6295 153.022C84.9361 153.099 85.2505 153.137 85.5725 153.137C85.8025 153.137 86.0401 153.114 86.2855 153.068C86.5461 153.007 86.7761 152.922 86.9755 152.815C87.1901 152.692 87.3665 152.539 87.5045 152.355C87.6425 152.156 87.7115 151.91 87.7115 151.619C87.7115 151.128 87.3818 150.76 86.7225 150.515C86.0785 150.27 85.1738 150.024 84.0085 149.779C83.5331 149.672 83.0655 149.549 82.6055 149.411C82.1608 149.258 81.7621 149.066 81.4095 148.836C81.0568 148.591 80.7731 148.292 80.5585 147.939C80.3438 147.571 80.2365 147.126 80.2365 146.605C80.2365 145.838 80.3821 145.21 80.6735 144.719C80.9801 144.228 81.3788 143.845 81.8695 143.569C82.3601 143.278 82.9121 143.078 83.5255 142.971C84.1388 142.848 84.7675 142.787 85.4115 142.787C86.0555 142.787 86.6765 142.848 87.2745 142.971C87.8878 143.094 88.4321 143.301 88.9075 143.592C89.3828 143.883 89.7738 144.274 90.0805 144.765C90.4025 145.24 90.5941 145.846 90.6555 146.582H87.5505C87.5045 145.953 87.2668 145.532 86.8375 145.317C86.4081 145.087 85.9021 144.972 85.3195 144.972C85.1355 144.972 84.9361 144.987 84.7215 145.018C84.5068 145.033 84.3075 145.079 84.1235 145.156C83.9548 145.233 83.8091 145.348 83.6865 145.501C83.5638 145.639 83.5025 145.831 83.5025 146.076C83.5025 146.367 83.6098 146.605 83.8245 146.789C84.0391 146.973 84.3151 147.126 84.6525 147.249C85.0051 147.356 85.4038 147.456 85.8485 147.548C86.2931 147.64 86.7455 147.74 87.2055 147.847C87.6808 147.954 88.1408 148.085 88.5855 148.238C89.0455 148.391 89.4518 148.598 89.8045 148.859C90.1571 149.104 90.4408 149.419 90.6555 149.802C90.8701 150.17 90.9775 150.63 90.9775 151.182C90.9775 151.964 90.8165 152.623 90.4945 153.16C90.1878 153.681 89.7815 154.103 89.2755 154.425C88.7695 154.747 88.1868 154.969 87.5275 155.092C86.8835 155.23 86.2241 155.299 85.5495 155.299C84.8595 155.299 84.1848 155.23 83.5255 155.092C82.8661 154.954 82.2758 154.724 81.7545 154.402C81.2485 154.08 80.8268 153.658 80.4895 153.137C80.1675 152.6 79.9911 151.933 79.9605 151.136H83.0655ZM92.951 146.766C92.997 145.999 93.1886 145.363 93.526 144.857C93.8633 144.351 94.2926 143.945 94.814 143.638C95.3353 143.331 95.918 143.117 96.562 142.994C97.2213 142.856 97.8806 142.787 98.54 142.787C99.138 142.787 99.7436 142.833 100.357 142.925C100.97 143.002 101.53 143.163 102.036 143.408C102.542 143.653 102.956 143.998 103.278 144.443C103.6 144.872 103.761 145.447 103.761 146.168V152.355C103.761 152.892 103.792 153.405 103.853 153.896C103.914 154.387 104.022 154.755 104.175 155H100.863C100.802 154.816 100.748 154.632 100.702 154.448C100.671 154.249 100.648 154.049 100.633 153.85C100.112 154.387 99.4983 154.762 98.793 154.977C98.0876 155.192 97.367 155.299 96.631 155.299C96.0636 155.299 95.5346 155.23 95.044 155.092C94.5533 154.954 94.124 154.739 93.756 154.448C93.388 154.157 93.0966 153.789 92.882 153.344C92.6826 152.899 92.583 152.37 92.583 151.757C92.583 151.082 92.698 150.53 92.928 150.101C93.1733 149.656 93.48 149.304 93.848 149.043C94.2313 148.782 94.6606 148.591 95.136 148.468C95.6266 148.33 96.1173 148.223 96.608 148.146C97.0986 148.069 97.5816 148.008 98.057 147.962C98.5323 147.916 98.954 147.847 99.322 147.755C99.69 147.663 99.9813 147.533 100.196 147.364C100.411 147.18 100.51 146.919 100.495 146.582C100.495 146.229 100.434 145.953 100.311 145.754C100.204 145.539 100.05 145.378 99.851 145.271C99.667 145.148 99.4446 145.072 99.184 145.041C98.9386 144.995 98.6703 144.972 98.379 144.972C97.735 144.972 97.229 145.11 96.861 145.386C96.493 145.662 96.2783 146.122 96.217 146.766H92.951ZM100.495 149.181C100.357 149.304 100.181 149.403 99.966 149.48C99.7666 149.541 99.5443 149.595 99.299 149.641C99.069 149.687 98.8236 149.725 98.563 149.756C98.3023 149.787 98.0416 149.825 97.781 149.871C97.5356 149.917 97.2903 149.978 97.045 150.055C96.815 150.132 96.608 150.239 96.424 150.377C96.2553 150.5 96.1173 150.661 96.01 150.86C95.9026 151.059 95.849 151.312 95.849 151.619C95.849 151.91 95.9026 152.156 96.01 152.355C96.1173 152.554 96.263 152.715 96.447 152.838C96.631 152.945 96.8456 153.022 97.091 153.068C97.3363 153.114 97.5893 153.137 97.85 153.137C98.494 153.137 98.9923 153.03 99.345 152.815C99.6976 152.6 99.9583 152.347 100.127 152.056C100.296 151.749 100.395 151.443 100.426 151.136C100.472 150.829 100.495 150.584 100.495 150.4V149.181ZM106.588 138.578H109.854V155H106.588V138.578ZM123.597 146.398L118.307 138.578H122.493L125.713 143.822L129.048 138.578H133.004L127.737 146.421L133.464 155H129.163L125.575 149.319L121.918 155H117.87L123.597 146.398ZM138.126 141.269H134.86V138.578H138.126V141.269ZM134.86 143.109H138.126V155H134.86V143.109ZM149.339 149.02C149.339 148.529 149.293 148.062 149.201 147.617C149.109 147.157 148.948 146.758 148.718 146.421C148.503 146.068 148.219 145.785 147.867 145.57C147.514 145.355 147.069 145.248 146.533 145.248C145.996 145.248 145.544 145.355 145.176 145.57C144.808 145.785 144.509 146.068 144.279 146.421C144.064 146.774 143.903 147.18 143.796 147.64C143.704 148.085 143.658 148.552 143.658 149.043C143.658 149.503 143.711 149.963 143.819 150.423C143.926 150.883 144.095 151.297 144.325 151.665C144.57 152.018 144.869 152.309 145.222 152.539C145.59 152.754 146.027 152.861 146.533 152.861C147.069 152.861 147.514 152.754 147.867 152.539C148.235 152.324 148.526 152.041 148.741 151.688C148.955 151.32 149.109 150.906 149.201 150.446C149.293 149.986 149.339 149.511 149.339 149.02ZM149.385 153.482H149.339C148.955 154.126 148.449 154.594 147.821 154.885C147.207 155.161 146.51 155.299 145.728 155.299C144.838 155.299 144.056 155.13 143.382 154.793C142.707 154.44 142.147 153.973 141.703 153.39C141.273 152.792 140.944 152.11 140.714 151.343C140.499 150.576 140.392 149.779 140.392 148.951C140.392 148.154 140.499 147.387 140.714 146.651C140.944 145.9 141.273 145.24 141.703 144.673C142.147 144.106 142.699 143.653 143.359 143.316C144.018 142.963 144.785 142.787 145.659 142.787C146.364 142.787 147.031 142.94 147.66 143.247C148.304 143.538 148.81 143.975 149.178 144.558H149.224V138.578H152.49V155H149.385V153.482ZM155.25 143.109H158.332V144.719H158.378C158.807 144.106 159.321 143.63 159.919 143.293C160.532 142.956 161.23 142.787 162.012 142.787C162.763 142.787 163.446 142.933 164.059 143.224C164.688 143.515 165.163 144.029 165.485 144.765C165.838 144.244 166.313 143.784 166.911 143.385C167.524 142.986 168.245 142.787 169.073 142.787C169.702 142.787 170.284 142.864 170.821 143.017C171.358 143.17 171.818 143.416 172.201 143.753C172.584 144.09 172.883 144.535 173.098 145.087C173.313 145.624 173.42 146.275 173.42 147.042V155H170.154V148.261C170.154 147.862 170.139 147.487 170.108 147.134C170.077 146.781 169.993 146.475 169.855 146.214C169.717 145.953 169.51 145.746 169.234 145.593C168.973 145.44 168.613 145.363 168.153 145.363C167.693 145.363 167.317 145.455 167.026 145.639C166.75 145.808 166.528 146.038 166.359 146.329C166.206 146.605 166.098 146.927 166.037 147.295C165.991 147.648 165.968 148.008 165.968 148.376V155H162.702V148.33C162.702 147.977 162.694 147.632 162.679 147.295C162.664 146.942 162.595 146.62 162.472 146.329C162.365 146.038 162.173 145.808 161.897 145.639C161.636 145.455 161.245 145.363 160.724 145.363C160.571 145.363 160.364 145.401 160.103 145.478C159.858 145.539 159.612 145.67 159.367 145.869C159.137 146.053 158.938 146.329 158.769 146.697C158.6 147.05 158.516 147.517 158.516 148.1V155H155.25V143.109ZM181.423 155.299C180.411 155.299 179.529 155.107 178.778 154.724C178.027 154.325 177.406 153.796 176.915 153.137C176.44 152.478 176.095 151.726 175.88 150.883C175.665 150.04 175.589 149.158 175.65 148.238H184.229C184.183 147.18 183.915 146.413 183.424 145.938C182.933 145.463 182.228 145.225 181.308 145.225C180.649 145.225 180.081 145.394 179.606 145.731C179.131 146.053 178.839 146.398 178.732 146.766H175.857C176.317 145.34 177.022 144.32 177.973 143.707C178.924 143.094 180.074 142.787 181.423 142.787C182.358 142.787 183.202 142.94 183.953 143.247C184.704 143.538 185.341 143.96 185.862 144.512C186.383 145.064 186.782 145.723 187.058 146.49C187.349 147.257 187.495 148.1 187.495 149.02C187.495 149.909 187.349 150.737 187.058 151.504C186.767 152.271 186.353 152.938 185.816 153.505C185.279 154.057 184.635 154.494 183.884 154.816C183.148 155.138 182.328 155.299 181.423 155.299ZM181.515 152.838C182.036 152.838 182.466 152.754 182.803 152.585C183.156 152.401 183.432 152.179 183.631 151.918C183.846 151.657 183.991 151.381 184.068 151.09C184.16 150.799 184.214 150.538 184.229 150.308H178.916C179.069 151.136 179.338 151.765 179.721 152.194C180.12 152.623 180.718 152.838 181.515 152.838ZM193.749 143.109H196.141V145.294H193.749V151.182C193.749 151.734 193.841 152.102 194.025 152.286C194.209 152.47 194.577 152.562 195.129 152.562C195.313 152.562 195.489 152.554 195.658 152.539C195.827 152.524 195.988 152.501 196.141 152.47V155C195.865 155.046 195.558 155.077 195.221 155.092C194.884 155.107 194.554 155.115 194.232 155.115C193.726 155.115 193.243 155.077 192.783 155C192.338 154.939 191.94 154.808 191.587 154.609C191.25 154.41 190.981 154.126 190.782 153.758C190.583 153.39 190.483 152.907 190.483 152.309V145.294H188.505V143.109H190.483V139.544H193.749V143.109ZM197.987 138.578H201.253V155H197.987V138.578ZM209.246 155.299C208.234 155.299 207.352 155.107 206.601 154.724C205.849 154.325 205.228 153.796 204.738 153.137C204.262 152.478 203.917 151.726 203.703 150.883C203.488 150.04 203.411 149.158 203.473 148.238H212.052C212.006 147.18 211.737 146.413 211.247 145.938C210.756 145.463 210.051 145.225 209.131 145.225C208.471 145.225 207.904 145.394 207.429 145.731C206.953 146.053 206.662 146.398 206.555 146.766H203.68C204.14 145.34 204.845 144.32 205.796 143.707C206.746 143.094 207.896 142.787 209.246 142.787C210.181 142.787 211.024 142.94 211.776 143.247C212.527 143.538 213.163 143.96 213.685 144.512C214.206 145.064 214.605 145.723 214.881 146.49C215.172 147.257 215.318 148.1 215.318 149.02C215.318 149.909 215.172 150.737 214.881 151.504C214.589 152.271 214.175 152.938 213.639 153.505C213.102 154.057 212.458 154.494 211.707 154.816C210.971 155.138 210.15 155.299 209.246 155.299ZM209.338 152.838C209.859 152.838 210.288 152.754 210.626 152.585C210.978 152.401 211.254 152.179 211.454 151.918C211.668 151.657 211.814 151.381 211.891 151.09C211.983 150.799 212.036 150.538 212.052 150.308H206.739C206.892 151.136 207.16 151.765 207.544 152.194C207.942 152.623 208.54 152.838 209.338 152.838ZM217.432 143.109H220.537V145.317H220.583C220.736 144.949 220.943 144.612 221.204 144.305C221.464 143.983 221.763 143.715 222.101 143.5C222.438 143.27 222.798 143.094 223.182 142.971C223.565 142.848 223.964 142.787 224.378 142.787C224.592 142.787 224.83 142.825 225.091 142.902V145.938C224.937 145.907 224.753 145.884 224.539 145.869C224.324 145.838 224.117 145.823 223.918 145.823C223.32 145.823 222.814 145.923 222.4 146.122C221.986 146.321 221.648 146.597 221.388 146.95C221.142 147.287 220.966 147.686 220.859 148.146C220.751 148.606 220.698 149.104 220.698 149.641V155H217.432V143.109ZM237.128 146.306H239.934C240.348 146.306 240.747 146.275 241.13 146.214C241.514 146.153 241.851 146.038 242.142 145.869C242.434 145.685 242.664 145.432 242.832 145.11C243.016 144.788 243.108 144.366 243.108 143.845C243.108 143.324 243.016 142.902 242.832 142.58C242.664 142.258 242.434 142.013 242.142 141.844C241.851 141.66 241.514 141.537 241.13 141.476C240.747 141.415 240.348 141.384 239.934 141.384H237.128V146.306ZM233.517 138.578H240.923C241.951 138.578 242.825 138.731 243.545 139.038C244.266 139.329 244.849 139.72 245.293 140.211C245.753 140.702 246.083 141.261 246.282 141.89C246.497 142.519 246.604 143.17 246.604 143.845C246.604 144.504 246.497 145.156 246.282 145.8C246.083 146.429 245.753 146.988 245.293 147.479C244.849 147.97 244.266 148.368 243.545 148.675C242.825 148.966 241.951 149.112 240.923 149.112H237.128V155H233.517V138.578ZM251.611 149.066C251.611 149.541 251.657 150.009 251.749 150.469C251.841 150.914 251.995 151.32 252.209 151.688C252.439 152.041 252.738 152.324 253.106 152.539C253.474 152.754 253.934 152.861 254.486 152.861C255.038 152.861 255.498 152.754 255.866 152.539C256.25 152.324 256.549 152.041 256.763 151.688C256.993 151.32 257.154 150.914 257.246 150.469C257.338 150.009 257.384 149.541 257.384 149.066C257.384 148.591 257.338 148.123 257.246 147.663C257.154 147.203 256.993 146.797 256.763 146.444C256.549 146.091 256.25 145.808 255.866 145.593C255.498 145.363 255.038 145.248 254.486 145.248C253.934 145.248 253.474 145.363 253.106 145.593C252.738 145.808 252.439 146.091 252.209 146.444C251.995 146.797 251.841 147.203 251.749 147.663C251.657 148.123 251.611 148.591 251.611 149.066ZM248.345 149.066C248.345 148.115 248.491 147.257 248.782 146.49C249.074 145.708 249.488 145.049 250.024 144.512C250.561 143.96 251.205 143.538 251.956 143.247C252.708 142.94 253.551 142.787 254.486 142.787C255.422 142.787 256.265 142.94 257.016 143.247C257.783 143.538 258.435 143.96 258.971 144.512C259.508 145.049 259.922 145.708 260.213 146.49C260.505 147.257 260.65 148.115 260.65 149.066C260.65 150.017 260.505 150.875 260.213 151.642C259.922 152.409 259.508 153.068 258.971 153.62C258.435 154.157 257.783 154.571 257.016 154.862C256.265 155.153 255.422 155.299 254.486 155.299C253.551 155.299 252.708 155.153 251.956 154.862C251.205 154.571 250.561 154.157 250.024 153.62C249.488 153.068 249.074 152.409 248.782 151.642C248.491 150.875 248.345 150.017 248.345 149.066ZM262.974 143.109H266.079V145.317H266.125C266.278 144.949 266.485 144.612 266.746 144.305C267.006 143.983 267.305 143.715 267.643 143.5C267.98 143.27 268.34 143.094 268.724 142.971C269.107 142.848 269.506 142.787 269.92 142.787C270.134 142.787 270.372 142.825 270.633 142.902V145.938C270.479 145.907 270.295 145.884 270.081 145.869C269.866 145.838 269.659 145.823 269.46 145.823C268.862 145.823 268.356 145.923 267.942 146.122C267.528 146.321 267.19 146.597 266.93 146.95C266.684 147.287 266.508 147.686 266.401 148.146C266.293 148.606 266.24 149.104 266.24 149.641V155H262.974V143.109ZM276.253 143.109H278.645V145.294H276.253V151.182C276.253 151.734 276.345 152.102 276.529 152.286C276.713 152.47 277.081 152.562 277.633 152.562C277.817 152.562 277.994 152.554 278.162 152.539C278.331 152.524 278.492 152.501 278.645 152.47V155C278.369 155.046 278.063 155.077 277.725 155.092C277.388 155.107 277.058 155.115 276.736 155.115C276.23 155.115 275.747 155.077 275.287 155C274.843 154.939 274.444 154.808 274.091 154.609C273.754 154.41 273.486 154.126 273.286 153.758C273.087 153.39 272.987 152.907 272.987 152.309V145.294H271.009V143.109H272.987V139.544H276.253V143.109ZM280.261 146.766C280.307 145.999 280.499 145.363 280.836 144.857C281.173 144.351 281.603 143.945 282.124 143.638C282.645 143.331 283.228 143.117 283.872 142.994C284.531 142.856 285.191 142.787 285.85 142.787C286.448 142.787 287.054 142.833 287.667 142.925C288.28 143.002 288.84 143.163 289.346 143.408C289.852 143.653 290.266 143.998 290.588 144.443C290.91 144.872 291.071 145.447 291.071 146.168V152.355C291.071 152.892 291.102 153.405 291.163 153.896C291.224 154.387 291.332 154.755 291.485 155H288.173C288.112 154.816 288.058 154.632 288.012 154.448C287.981 154.249 287.958 154.049 287.943 153.85C287.422 154.387 286.808 154.762 286.103 154.977C285.398 155.192 284.677 155.299 283.941 155.299C283.374 155.299 282.845 155.23 282.354 155.092C281.863 154.954 281.434 154.739 281.066 154.448C280.698 154.157 280.407 153.789 280.192 153.344C279.993 152.899 279.893 152.37 279.893 151.757C279.893 151.082 280.008 150.53 280.238 150.101C280.483 149.656 280.79 149.304 281.158 149.043C281.541 148.782 281.971 148.591 282.446 148.468C282.937 148.33 283.427 148.223 283.918 148.146C284.409 148.069 284.892 148.008 285.367 147.962C285.842 147.916 286.264 147.847 286.632 147.755C287 147.663 287.291 147.533 287.506 147.364C287.721 147.18 287.82 146.919 287.805 146.582C287.805 146.229 287.744 145.953 287.621 145.754C287.514 145.539 287.36 145.378 287.161 145.271C286.977 145.148 286.755 145.072 286.494 145.041C286.249 144.995 285.98 144.972 285.689 144.972C285.045 144.972 284.539 145.11 284.171 145.386C283.803 145.662 283.588 146.122 283.527 146.766H280.261ZM287.805 149.181C287.667 149.304 287.491 149.403 287.276 149.48C287.077 149.541 286.854 149.595 286.609 149.641C286.379 149.687 286.134 149.725 285.873 149.756C285.612 149.787 285.352 149.825 285.091 149.871C284.846 149.917 284.6 149.978 284.355 150.055C284.125 150.132 283.918 150.239 283.734 150.377C283.565 150.5 283.427 150.661 283.32 150.86C283.213 151.059 283.159 151.312 283.159 151.619C283.159 151.91 283.213 152.156 283.32 152.355C283.427 152.554 283.573 152.715 283.757 152.838C283.941 152.945 284.156 153.022 284.401 153.068C284.646 153.114 284.899 153.137 285.16 153.137C285.804 153.137 286.302 153.03 286.655 152.815C287.008 152.6 287.268 152.347 287.437 152.056C287.606 151.749 287.705 151.443 287.736 151.136C287.782 150.829 287.805 150.584 287.805 150.4V149.181ZM293.898 138.578H297.164V155H293.898V138.578ZM300.028 143.109H303.294V155H300.028V143.109Z" fill="#162753"/>
</svg>
